<svg xmlns="http://www.w3.org/2000/svg" width="512.002" height="511.999" viewBox="0 0 512.002 511.999">
  <g id="broom" transform="translate(0.002 0)">
    <path id="Caminho_3552" data-name="Caminho 3552" d="M498.841,13.159a45.051,45.051,0,0,0-63.639,0L248.345,200.015l-7.071-7.071a15,15,0,0,0-24.477,4.9l-21.162,51.393-20.408,1.2a298.093,298.093,0,0,0-169.6,65.147A15,15,0,0,0,1.583,334C40.6,412.041,99.956,471.4,178,510.414a14.994,14.994,0,0,0,18.421-4.046,298.091,298.091,0,0,0,65.147-169.6l1.2-20.407L314.158,295.2a15,15,0,0,0,4.895-24.477l-7.072-7.072L498.841,76.8a45.05,45.05,0,0,0,0-63.638ZM180.442,477.88q-10.563-5.7-20.607-11.976l30.79-53.329a15,15,0,0,0-25.98-15l-29.681,51.408a351.32,351.32,0,0,1-27.8-22.938l45.719-45.719a15,15,0,0,0-21.213-21.213L85.955,404.832a351.676,351.676,0,0,1-22.938-27.8l51.408-29.681a15,15,0,1,0-15-25.98L46.1,352.165q-6.261-10.05-11.976-20.607a268.091,268.091,0,0,1,142.87-51.177l23.085-1.357,32.9,32.9-1.357,23.085A268.094,268.094,0,0,1,180.442,477.88ZM251.882,288.4,223.6,260.118l12.374-30.051,45.962,45.962ZM477.628,55.584,290.793,242.419,269.58,221.206,456.415,34.372a15,15,0,1,1,21.213,21.212Z" fill="#f0f0f0"/>
  </g>
</svg>
